#!OML:ASF I:\Actors\actors\Patient Classification 2\Patient 1\Session 1\actor1.ASF
:FULLY-SPECIFIED
:DEGREES
561
root -0.820144 18.762 5.23723 3.5947 0.573377 -3.62698
lowerback 7.40458 2.10165 -5.06615
upperback 1.54086 2.327 -2.43217
thorax -2.6546 1.18586 0.101945
lowerneck -12.9308 1.04281 -1.17439
upperneck 34.1081 2.26755 -0.757986
head 13.7003 0.741984 0.25239
rclavicle 2.26615e-014 5.08889e-014
rhumerus -32.874 42.1279 -82.3921
rradius 113.101
rwrist 11.4725
rhand -28.3315 -31.4711
rfingers 7.12502
rthumb -1.70608 -61.444
lclavicle 2.26615e-014 5.08889e-014
lhumerus 3.65925 -34.7704 63.3708
lradius 81.0776
lwrist 39.2319
lhand -0.644396 -26.0254
lfingers 7.12502
lthumb 24.973 2.36255
rfemur 0 0 0
rtibia 0
rfoot 0 0
rtoes 0
lfemur -8.64037 -9.5988 -9.53171
ltibia 22.3528
lfoot -23.7267 16.7596
ltoes -54.485
562
root -0.816307 18.7633 5.2365 3.65579 0.50371 -3.56049
lowerback 7.40963 2.13271 -5.14615
upperback 1.48542 2.35932 -2.41439
thorax -2.72014 1.20426 0.15984
lowerneck -12.8836 0.998074 -1.13818
upperneck 33.9338 2.20875 -0.828851
head 13.6146 0.714338 0.208012
rclavicle 8.34896e-015 -4.29375e-014
rhumerus -33.2923 41.7876 -82.7333
rradius 113.21
rwrist 11.3211
rhand -28.0767 -31.2625
rfingers 7.12502
rthumb -1.46003 -61.2372
lclavicle 8.34896e-015 -4.29375e-014
lhumerus 3.43698 -34.7713 63.5454
lradius 81.1833
lwrist 39.2072
lhand -0.646442 -25.9622
lfingers 7.12502
lthumb 24.9711 2.42607
rfemur 0 0 0
rtibia 0
rfoot 0 0
rtoes 0
lfemur -8.67776 -9.64408 -9.61919
ltibia 22.3418
lfoot -23.7478 16.8581
ltoes -54.4064
563
root -0.81333 18.7648 5.23647 3.71679 0.526549 -3.55136
lowerback 7.43682 2.14014 -5.14195
upperback 1.43196 2.36587 -2.38175
thorax -2.79227 1.20947 0.188114
lowerneck -12.8477 0.94703 -1.06199
upperneck 33.7606 2.16118 -0.989164
head 13.5343 0.684712 0.123282
rclavicle 1.78906e-014 -4.77083e-015
rhumerus -33.6096 40.9938 -83.0877
rradius 113.38
rwrist 10.8979
rhand -27.6908 -31.2143
rfingers 7.12502
rthumb -1.08729 -61.1913
lclavicle 1.78906e-014 -4.77083e-015
lhumerus 3.16982 -34.6711 63.8231
lradius 81.3074
lwrist 39.2712
lhand -0.708019 -25.9805
lfingers 7.12502
lthumb 24.912 2.4159
rfemur 0 0 0
rtibia 0
rfoot 0 0
rtoes 0
lfemur -8.75207 -9.66672 -9.62703
ltibia 22.344
lfoot -23.7221 16.8929
ltoes -54.3702
564
root -0.810471 18.7666 5.238 3.75651 0.607079 -3.62685
lowerback 7.41985 2.11353 -5.0194
upperback 1.41569 2.34247 -2.32737
thorax -2.79615 1.1974 0.178847
lowerneck -12.8292 0.882951 -1.04598
upperneck 33.5781 2.10032 -1.11945
head 13.4529 0.645457 0.059502
rclavicle -1.43125e-014 5.56597e-014
rhumerus -33.8041 39.8278 -83.452
rradius 113.551
rwrist 9.81597
rhand -27.3046 -31.4807
rfingers 7.12502
rthumb -0.714261 -61.4593
lclavicle -1.43125e-014 5.56597e-014
lhumerus 2.93281 -34.4641 64.129
lradius 81.3716
lwrist 39.2806
lhand -0.726189 -25.9807
lfingers 7.12502
lthumb 24.8946 2.41813
rfemur 0 0 0
rtibia 0
rfoot 0 0
rtoes 0
lfemur -8.82322 -9.6147 -9.53159
ltibia 22.3557
lfoot -23.673 16.8222
ltoes -54.4479
565
root -0.807038 18.7675 5.24051 3.78163 0.67836 -3.70689
lowerback 7.36715 2.08282 -4.84709
upperback 1.4074 2.31967 -2.29879
thorax -2.76892 1.18459 0.116717
lowerneck -12.7841 0.813466 -1.11424
upperneck 33.3462 1.999 -1.09412
head 13.341 0.599181 0.0658596
rclavicle -1.86858e-014 -4.77083e-015
rhumerus -33.9895 38.2814 -83.9253
rradius 113.69
rwrist 7.69711
rhand -26.5168 -31.9416
rfingers 7.12502
rthumb 0.0466145 -61.9214
lclavicle -1.86858e-014 -4.77083e-015
lhumerus 2.75442 -34.2498 64.4096
lradius 81.3471
lwrist 39.1414
lhand -0.765977 -25.854
lfingers 7.12502
lthumb 24.8565 2.55016
rfemur 0 0 0
rtibia 0
rfoot 0 0
rtoes 0
lfemur -8.87428 -9.57081 -9.43713
ltibia 22.3759
lfoot -23.6527 16.7261
ltoes -54.4729
566
root -0.80219 18.7667 5.24455 3.80392 0.725662 -3.69586
lowerback 7.32168 2.04829 -4.76302
upperback 1.35454 2.28106 -2.30646
thorax -2.79336 1.16582 0.0663316
lowerneck -12.6885 0.779391 -1.13059
upperneck 33.1507 1.92987 -1.0517
head 13.2347 0.575378 0.0743391
rclavicle 1.37161e-014 3.33958e-014
rhumerus -34.2745 36.4946 -84.4866
rradius 113.844
rwrist 4.43132
rhand -24.9328 -32.7046
rfingers 7.12502
rthumb 1.5765 -62.6785
lclavicle 1.37161e-014 3.33958e-014
lhumerus 2.50062 -34.0615 64.671
lradius 81.2764
lwrist 38.9427
lhand -0.825633 -25.745
lfingers 7.12502
lthumb 24.7993 2.66702
rfemur 0 0 0
rtibia 0
rfoot 0 0
rtoes 0
lfemur -8.91546 -9.53342 -9.46309
ltibia 22.405
lfoot -23.6144 16.6953
ltoes -54.559
567
root -0.797113 18.7663 5.24957 3.83644 0.757171 -3.61972
lowerback 7.29207 2.01062 -4.7456
upperback 1.25936 2.22968 -2.32445
thorax -2.87228 1.14248 0.0419644
lowerneck -12.6536 0.763713 -1.10752
upperneck 33.0929 1.88589 -1.01905
head 13.2018 0.564044 0.0762806
rclavicle -1.82882e-014 2.70347e-014
rhumerus -34.6678 34.5819 -85.0124
rradius 113.986
rwrist 0.243079
rhand -22.9472 -33.8539
rfingers 7.12502
rthumb 3.49406 -63.8051
lclavicle -1.82882e-014 2.70347e-014
lhumerus 2.11282 -33.8517 64.9786
lradius 81.2014
lwrist 38.6102
lhand -0.874074 -25.7342
lfingers 7.12502
lthumb 24.7529 2.68414
rfemur 0 0 0
rtibia 0
rfoot 0 0
rtoes 0
lfemur -8.96568 -9.49609 -9.5598
ltibia 22.4396
lfoot -23.5774 16.658
ltoes -54.5771
568
root -0.792997 18.767 5.25457 3.87834 0.777425 -3.57901
lowerback 7.27697 1.97139 -4.65237
upperback 1.15156 2.18081 -2.33582
thorax -2.97 1.12006 -0.0188131
lowerneck -12.6918 0.722231 -1.16358
upperneck 33.0408 1.79713 -0.898154
head 13.1854 0.534304 0.120439
rclavicle 3.73715e-014 4.77083e-015
rhumerus -35.0327 32.5167 -85.4566
rradius 113.982
rwrist -4.50166
rhand -20.9681 -35.4939
rfingers 7.12502
rthumb 5.40513 -65.405
lclavicle 3.73715e-014 4.77083e-015
lhumerus 1.66871 -33.5935 65.3338
lradius 81.1001
lwrist 38.0939
lhand -1.01748 -25.6378
lfingers 7.12502
lthumb 24.6155 2.79934
rfemur 0 0 0
rtibia 0
rfoot 0 0
rtoes 0
lfemur -9.03111 -9.37004 -9.60212
ltibia 22.4704
lfoot -23.5091 16.5309
ltoes -54.567
569
root -0.787365 18.768 5.26275 3.89834 0.767186 -3.61164
lowerback 7.26443 1.92891 -4.49603
upperback 1.01384 2.13278 -2.29818
thorax -3.09994 1.09822 -0.0649876
lowerneck -12.6208 0.690365 -1.17932
upperneck 32.8902 1.74582 -0.893826
head 13.1053 0.512326 0.116678
rclavicle 9.93923e-015 3.65764e-014
rhumerus -35.4439 30.382 -85.8314
rradius 113.728
rwrist -9.29146
rhand -19.1242 -37.0452
rfingers 7.12502
rthumb 7.18526 -66.9032
lclavicle 9.93923e-015 3.65764e-014
lhumerus 1.02928 -33.2362 65.8905
lradius 80.9548
lwrist 37.5132
lhand -1.27142 -25.4567
lfingers 7.12502
lthumb 24.372 3.01343
rfemur 0 0 0
rtibia 0
rfoot 0 0
rtoes 0
lfemur -9.04469 -9.2633 -9.58033
ltibia 22.4967
lfoot -23.494 16.4477
ltoes -54.6381
570
root -0.779511 18.7686 5.27427 3.91284 0.749759 -3.62302
lowerback 7.2101 1.88367 -4.41751
upperback 0.856057 2.0786 -2.21324
thorax -3.23182 1.07448 -0.0172868
lowerneck -12.5184 0.703979 -1.12231
upperneck 32.768 1.7895 -1.03112
head 13.0336 0.522414 0.0588912
rclavicle 5.66536e-014 -3.65764e-014
rhumerus -35.9767 28.2685 -86.0558
rradius 113.298
rwrist -13.825
rhand -17.6096 -38.4084
rfingers 7.12502
rthumb 8.64714 -68.2113
lclavicle 5.66536e-014 -3.65764e-014
lhumerus 0.113264 -32.7223 66.7168
lradius 80.822
lwrist 36.9254
lhand -1.53229 -25.2291
lfingers 7.12502
lthumb 24.1219 3.27443
rfemur 0 0 0
rtibia 0
rfoot 0 0
rtoes 0
lfemur -9.0196 -9.33081 -9.60324
ltibia 22.516
lfoot -23.5764 16.4879
ltoes -54.6458
571
root -0.772782 18.7683 5.28655 3.96807 0.732711 -3.57728
lowerback 7.03676 1.82997 -4.41228
upperback 0.732251 2.01666 -2.12687
thorax -3.26417 1.04613 0.0783655
lowerneck -12.1192 0.1975 -1.95276
upperneck 32.4297 1.08784 -0.552169
head 12.7973 0.178985 0.286219
rclavicle 2.70347e-014 3.18055e-014
rhumerus -36.4714 26.244 -86.1436
rradius 112.704
rwrist -17.7719
rhand -16.6756 -40.4187
rfingers 7.12502
rthumb 9.54837 -70.1824
lclavicle 2.70347e-014 3.18055e-014
lhumerus -0.868677 -32.0746 67.5829
lradius 80.6959
lwrist 36.4288
lhand -1.79028 -24.7601
lfingers 7.12502
lthumb 23.8745 3.77604
rfemur 0 0 0
rtibia 0
rfoot 0 0
rtoes 0
lfemur -9.02664 -9.42763 -9.68625
ltibia 22.5178
lfoot -23.6564 16.6017
ltoes -54.6504
